<svg xmlns="http://www.w3.org/2000/svg" width="44" height="44" fill="none" viewBox="0 0 44 44">
  <g clip-path="url(#clip0_2907_6848)">
    <path fill="#000" d="M44 21.882C44.237 33.177 35.366 43.94 22.237 44 8.397 44.118 0 32.645 0 21.94 0 10.469 9.58 0 22 0c12.183 0 21.94 9.699 22 21.882zM22.118 40.333c9.522.296 18.334-7.747 18.334-18.392-.06-10.113-8.457-18.51-18.511-18.452-10.054.06-18.333 8.457-18.333 18.57 0 10.409 8.811 18.63 18.51 18.274z"/>
    <path fill="#000" d="M22.177 18.215c2.957 0 5.914-.06 8.871 0 2.307.06 2.78.473 2.84 2.78.058 3.43.058 6.86 0 10.349-.06 2.01-.651 2.602-2.721 2.661-6.092.06-12.183.06-18.334 0-2.07 0-2.661-.591-2.661-2.661-.06-3.43-.06-6.86 0-10.35.06-2.247.532-2.72 2.839-2.72 3.075-.059 6.091-.059 9.166-.059zm-.236 2.07c-2.661.059-4.436 2.129-3.312 4.613.65 1.36 1.005 2.07 1.064 3.548.06 1.597 1.006 2.602 2.189 2.662 1.182.059 2.188-.888 2.306-2.544.119-1.478.473-2.188 1.124-3.548 1.36-2.602-.592-4.79-3.371-4.731zm-10.113 5.677v5.027c0 .65.355 1.183 1.065 1.183s1.064-.532 1.064-1.183V21.29c0-.65-.355-1.182-1.065-1.182s-1.005.59-1.005 1.182c-.059 1.479-.059 3.076-.059 4.672zM29.806 13.543c0 2.07-.59 2.543-2.543 2.247-.532-.118-.887-.354-.946-.887-.059-.414 0-.769-.059-1.183-.473-3.016-1.833-4.08-4.79-3.844-1.834.178-2.898.947-3.43 2.72-.178.533-.178 1.184-.237 1.716-.06.591.06 1.242-.71 1.42-.887.117-1.774.236-2.602-.12-.236-.117-.414-.709-.414-1.005.119-3.311.947-6.09 4.377-7.747 3.193-1.597 6.919-.946 9.285 1.42 1.537 1.478 1.951 3.37 2.07 5.263z"/>
  </g>
  <defs>
    <clipPath id="clip0_2907_6848">
      <path fill="#fff" d="M0 0h44v44H0z"/>
    </clipPath>
  </defs>
</svg>
