<svg xmlns="http://www.w3.org/2000/svg" viewBox="0 0 24.71 24.71"><defs><style>.cls-1{fill:#fffdf8;stroke:#79747e;stroke-miterlimit:10;stroke-width:0.71px;}.cls-2{fill:#13ba92;}</style></defs><g id="Layer_2" data-name="Layer 2"><g id="Layer_1-2" data-name="Layer 1"><circle class="cls-1" cx="12.35" cy="12.35" r="12"/><polygon class="cls-2" points="10.23 19.05 8.67 17.73 8.67 6.63 10.24 5.33 14.52 5.33 16.09 6.63 16.09 9.49 13.62 9.49 13.62 7.69 13.31 7.41 11.45 7.41 11.13 7.69 11.13 16.65 11.45 16.92 13.31 16.92 13.62 16.65 13.62 14.72 16.09 14.72 16.09 17.73 14.52 19.05 10.23 19.05"/><path class="cls-2" d="M16,6.7V9.35H13.76V7.62l-.4-.35h-2L11,7.62v9.09l.41.35h2l.4-.35V14.86H16v2.81l-1.48,1.24H10.29L8.81,17.67V6.7l1.48-1.23h4.18Z"/></g></g></svg>