<svg xmlns="http://www.w3.org/2000/svg" width="44" height="44" fill="none" viewBox="0 0 44 44">
  <path fill="#000" d="M38.5 3.667h-33a3.677 3.677 0 00-3.667 3.666v22A3.677 3.677 0 005.5 33h12.833v3.667h-3.666v3.666h14.666v-3.666h-3.666V33H38.5a3.677 3.677 0 003.667-3.667v-22A3.677 3.677 0 0038.5 3.667zm0 25.666h-33v-22h33v22z"/>
  <g clip-path="url(#clip0_2907_6841)">
    <path fill="#000" d="M22.917 19.25v7.333h7.333V19.25h-7.333zm-9.167 7.333h7.333V19.25H13.75v7.333zm0-16.5v7.334h7.333v-7.334H13.75zm12.522-1.2l-5.189 5.179 5.189 5.188 5.188-5.188-5.188-5.18z"/>
  </g>
  <defs>
    <clipPath id="clip0_2907_6841">
      <path fill="#fff" d="M0 0h22v22H0z" transform="translate(11 7.333)"/>
    </clipPath>
  </defs>
</svg>
