<svg xmlns="http://www.w3.org/2000/svg" width="44" height="44" fill="none" viewBox="0 0 44 44">
  <path fill="#000" d="M38.5 11h-33a3.677 3.677 0 00-3.667 3.667v14.666A3.677 3.677 0 005.5 33h33a3.677 3.677 0 003.667-3.667V14.667A3.677 3.677 0 0038.5 11zM20.167 23.833h-5.5v5.5H11v-5.5H5.5v-3.666H11v-5.5h3.667v5.5h5.5v3.666zm8.25 3.667a2.746 2.746 0 01-2.75-2.75 2.746 2.746 0 012.75-2.75 2.746 2.746 0 012.75 2.75 2.746 2.746 0 01-2.75 2.75zM35.75 22A2.746 2.746 0 0133 19.25a2.746 2.746 0 012.75-2.75 2.746 2.746 0 012.75 2.75A2.746 2.746 0 0135.75 22z"/>
</svg>
