<svg xmlns="http://www.w3.org/2000/svg" width="44" height="44" fill="none" viewBox="0 0 44 44">
  <path fill="#000" d="M3.827 5.618c4.004 0 7.949-.03 11.894.03.618 0 1.295.384 1.855.74 1.796 1.123 2.62 2.809 2.59 4.967-.029 6.063 0 12.126 0 18.188V31.2h3.68v-1.774V11.68c0-3.993 2.18-6.151 6.183-6.181 3.239 0 6.477 0 9.716.03.147 0 .265.059.588.147V30.43c0 3.106-1.354 4.436-4.504 4.436-3.18 0-6.389-.03-9.568.03-.56 0-1.178.325-1.62.68-1.619 1.45-3.68 1.45-5.299.03-.441-.385-1.148-.71-1.737-.71-3.386-.06-6.771 0-10.157-.03-2.178-.03-3.768-1.508-3.768-3.667-.03-8.34 0-16.65 0-24.99.03-.118.088-.325.147-.59z"/>
</svg>
