<svg xmlns="http://www.w3.org/2000/svg" width="44" height="44" fill="none" viewBox="0 0 44 44">
  <path fill="#000" d="M16.5 5.5l-3.355 3.667H7.333a3.677 3.677 0 00-3.666 3.666v22A3.677 3.677 0 007.333 38.5h29.334a3.677 3.677 0 003.666-3.667v-22a3.677 3.677 0 00-3.666-3.666h-5.812L27.5 5.5h-11zM22 33c-5.06 0-9.167-4.107-9.167-9.167S16.94 14.667 22 14.667s9.167 4.106 9.167 9.166C31.167 28.893 27.06 33 22 33z"/>
  <path fill="#000" d="M22 31.167l2.292-5.042 5.041-2.292-5.041-2.291L22 16.5l-2.292 5.042-5.041 2.291 5.041 2.292L22 31.167z"/>
</svg>
