<svg xmlns="http://www.w3.org/2000/svg" width="22" height="23" fill="none" viewBox="0 0 22 23">
  <path fill="#E63C2F" d="M17.04 1.658l.045.03.557.389.308.232.3.246.406.365c.054.061.043.109-.015.169-.131.132-.255.273-.383.408l-.005.005-.596.611-.008.008-.585.602-.026.027-.575.588-.03.03-.571.586-.032.032-.303.28-.253-.205-.124-.104-.483-.366a4.579 4.579 0 00-1.24-.644l-.573-.176c-.406-.136-.826-.177-1.25-.198l-.562-.005-.645.048-.479.081-.19.05-.498.146-.696.278-.272.134-.282.164-.605.408-.118.09-.452.388-.232.23-.394.443-.13.169-.418.605-.07.12-.269.499c-.092.216-.184.432-.275.65l-.022.078-.073.136c-.303-.237-.606-.472-.906-.712-.644-.511-1.284-1.026-1.927-1.536-.29-.23-.586-.453-.878-.68l.129-.31.04-.078.343-.586a14.81 14.81 0 011.43-1.88l.606-.61.005-.004c.182-.146.363-.293.547-.438.228-.177.46-.35.689-.524l.36-.24.247-.148.607-.34.33-.159.226-.099.649-.267.583-.213.161-.033.43-.11.636-.143.564-.088.645-.058L11 0h.644l.564.038.644.076.563.09.637.15.272.07.34.11.563.203.644.283.06.022.542.28.566.336z"/>
  <path fill="#2EA24B" d="M14.068 17.865l.355-.169.207-.11.43-.247c.04.038.075.079.117.11 1.157.92 2.314 1.84 3.472 2.758l-.362.356-.251.207-.348.26-.448.311-.157.096-1.249.656-.572.224-1.245.37-.558.114-.645.11-.564.05-.644.038h-.563l-.644-.032-.563-.051-.644-.101-.564-.121-1.202-.362-.612-.251-.326-.153-.278-.134-.644-.361-.157-.094-.44-.292-.391-.281-.215-.167-.524-.442-.045-.038-.604-.587-.03-.031-.537-.612-.075-.093-.365-.483-.237-.341-.174-.274c-.154-.278-.31-.555-.463-.834-.038-.07-.065-.148-.098-.222l1.649-1.3 2.059-1.628.15.346.251.561.241.45.072.127c.26.476.602.887.977 1.268.411.431.884.798 1.402 1.087l.287.152.322.16.565.231.644.175.24.048.366.067.561.044.645-.005.57-.055.316-.05.28-.05.705-.186.555-.219z"/>
  <path fill="#3C7EF2" d="M18.649 20.207l-3.473-2.756c-.042-.033-.078-.074-.117-.109.376-.289.741-.587 1.043-.958.3-.372.567-.744.741-1.187.072-.173.141-.347.21-.521l.033-.117.153-.552.041-.15h-5.634l-.438-.02V9.652l.038-.227.36-.017h10.19l.128.901.045.573.031.657v.573l-.036.657-.046.574-.204 1.272-.145.574c-.06.219-.122.438-.184.657l-.079.237-.147.383-.241.572-.687 1.275-.128.2-.289.412-.319.406c-.057.07-.115.138-.173.206l-.43.458-.164.164-.08.047z"/>
  <path fill="#F7B505" d="M4.918 13.715L2.86 15.343l-1.648 1.3-.128-.218-.253-.586-.097-.24-.127-.362-.2-.657-.137-.584-.202-1.27-.051-.575L0 11.5l.01-.575.053-.65.07-.577.273-1.276.17-.572.479-1.23.154-.26c.293.226.59.449.878.679.644.51 1.284 1.025 1.927 1.536.3.24.604.474.906.712l-.095.402-.134.578-.085.657-.015.575.023.656.081.581.223.98z"/>
</svg>
