<svg xmlns="http://www.w3.org/2000/svg" width="44" height="44" fill="none" viewBox="0 0 44 44">
  <path fill="#000" d="M40.293 41.25c-2.897-.664-5.707-1.328-8.518-1.935-2.093-.462-3.212-1.877-3.986-3.753a6.53 6.53 0 00-1.377-2.108c-2.093-2.108-4.273-4.13-6.395-6.15-1.95-1.849-3.9-3.697-5.822-5.545-3.412-3.205-6.74-6.439-10.123-9.615-1.52-1.444-1.864-4.1-.316-5.688.89-.924 1.75-1.906 2.725-2.744 1.634-1.386 3.843-1.27 5.449.318 1.348 1.3 2.552 2.714 3.843 4.071 2.781 2.974 5.62 5.89 8.374 8.894 2.868 3.147 5.678 6.352 8.546 9.5.63.693 1.348 1.473 2.18 1.79 2.38.924 3.642 2.628 4.1 5.111.43 2.397.918 4.793 1.349 7.219.028.115 0 .317-.03.635zM9.062 6.253c-.402.231-.717.376-.947.578-.487.462-.975.924-1.405 1.444-.63.722-.63 1.01.057 1.703.689.664 1.406 1.3 2.094 1.964 3.327 3.147 6.625 6.323 9.98 9.47.918.867 1.32.752 2.352-.346.774-.808.745-1.097-.115-2.05a485.252 485.252 0 00-5.277-5.833c-1.835-1.992-3.67-4.013-5.535-6.006-.344-.375-.774-.606-1.204-.924zM29.596 28.43c-.058-.116-.144-.347-.287-.52-1.29-1.473-2.553-2.974-3.9-4.36-.746-.78-1.148-.665-2.008.26-.803.837-.832 1.155-.086 1.934 1.233 1.242 2.524 2.454 3.814 3.667.201.202.43.376.689.491.688.26 1.835-.577 1.778-1.473zm6.252 6.727c-.201-.75-.287-1.501-.574-2.194-.373-.924-1.434-1.444-2.466-1.328-.775.086-1.377.404-1.635 1.183-.459 1.387.2 2.715 1.606 3.206.487.173 1.004.346 1.491.462 1.262.26 1.52.029 1.578-1.329zM23.833 11.095c.985-1.063 1.97-2.095 2.927-3.097 1.506-1.58 3.013-3.158 4.52-4.737a8.588 8.588 0 011.1-.972c.783-.607 1.623-.638 2.318.091 2.029 2.065 4.028 4.13 5.969 6.286.782.85.753 1.609.058 2.55-.55.76-1.217 1.397-1.855 2.065-1.94 2.065-3.882 4.13-5.852 6.164-.898.941-1.072.941-1.797.121-2.23-2.52-4.49-5.04-6.721-7.59-.232-.213-.406-.517-.667-.881zM15.6 37.583c-.732-2.666-2.014-4.34-4.546-4.743-.336-.062-.824-.496-.885-.837-.489-2.511-2.014-3.968-4.669-4.62 1.434-1.457 2.685-2.759 3.967-4.03.64-.65 1.373-.527 1.983.062 2.747 2.666 5.493 5.333 8.24 7.968.61.589.64 1.209.06 1.798-1.312 1.426-2.654 2.821-4.15 4.402zM3.915 33.917c1.827 1.793 3.51 3.474 5.252 5.183-.229.14-.371.28-.514.336-1.513.308-3.026.7-4.567.868-1.113.14-1.484-.224-1.284-1.26.314-1.653.314-3.39 1.113-5.127z"/>
  <path fill="#fff" d="M38.042 11a1.375 1.375 0 100-2.75 1.375 1.375 0 000 2.75z"/>
</svg>
