<svg xmlns="http://www.w3.org/2000/svg" xmlns:xlink="http://www.w3.org/1999/xlink" viewBox="0 0 419.46 245.02"><defs><style>.cls-1{fill:url(#New_Gradient_Swatch);}.cls-2{fill:url(#linear-gradient);}.cls-3{fill:url(#New_Gradient_Swatch-2);}</style><linearGradient id="New_Gradient_Swatch" x1="139.99" y1="130.27" x2="277.28" y2="51" gradientUnits="userSpaceOnUse"><stop offset="0"/><stop offset="0.52" stop-color="#000408"/><stop offset="0.73" stop-color="#054191"/><stop offset="0.99" stop-color="#0766e3"/></linearGradient><linearGradient id="linear-gradient" x1="254.74" y1="170.06" x2="293.93" y2="72.51" gradientUnits="userSpaceOnUse"><stop offset="0"/><stop offset="0.52" stop-color="#000408"/><stop offset="0.83" stop-color="#054191"/><stop offset="0.99" stop-color="#0766e3"/></linearGradient><linearGradient id="New_Gradient_Swatch-2" x1="290.44" y1="131.99" x2="423.63" y2="55.09" xlink:href="#New_Gradient_Swatch"/></defs><g id="Layer_2" data-name="Layer 2"><g id="Layer_1-2" data-name="Layer 1"><rect x="96.36" y="19.88" width="20.75" height="20.75"/><path d="M96.5,72.3H83v-15h34.39V190H96.5Z"/><path d="M188.69,110.2h19.9V245H175.87v-15.2h12.82Z"/><path d="M47.79,15.3H34.42V0H68.53V135.66H47.79Z"/><path class="cls-1" d="M177.54,178.15a16.51,16.51,0,0,1-12.35-5.06q-4.91-5-4.91-16.07,0-8.27,3.57-21.88a337.51,337.51,0,0,1,11.91-35,460.76,460.76,0,0,1,20.08-45.15A298.65,298.65,0,0,1,221,13.77,36.81,36.81,0,0,1,231.7,3.37Q237.36,0,242.11,0a9.67,9.67,0,0,1,7,2.75q2.82,2.76,2.82,8.88a34.31,34.31,0,0,1-1.19,8.11,57.2,57.2,0,0,1-4.16,10.87Q239.72,45,225.3,62.6t-41.81,42.7q-13.1,34-13.09,52.64,0,8.26,2.83,11.79a8.62,8.62,0,0,0,7,3.52,18.81,18.81,0,0,0,9.08-2.76,81.92,81.92,0,0,0,9.37-6.12,141,141,0,0,0,19.19-19.13,232.82,232.82,0,0,0,17.41-23.42c.2-.4.69-.61,1.49-.61a2.11,2.11,0,0,1,1.63.92,1.43,1.43,0,0,1,.15,1.84,246.27,246.27,0,0,1-18.74,24.79A165.78,165.78,0,0,1,199,169.57Q187.95,178.15,177.54,178.15Zm9.52-81.42A443.43,443.43,0,0,0,221,61.07a169.45,169.45,0,0,0,21.42-31.68q5.66-11.33,5.66-17.45,0-5.2-3.58-5.21c-1.59,0-3.77,1.18-6.54,3.52a60,60,0,0,0-9.52,11.18Q219.79,34.28,213,45.91T200,69.64Q193.91,81.73,187.06,96.73Z"/><path class="cls-2" d="M255.8,177.84q-8.34,0-12.65-6.12t-4.31-16.23a55.59,55.59,0,0,1,1-10.4,104.15,104.15,0,0,1,2.83-11.33q2.67-8.56,6.25-18.36a128.7,128.7,0,0,1,5.65-13.78c-.4.21-1.44,1.53-3.13,4s-3.77,5.46-6.24,9l-7.59,10.87q-3.87,5.5-6.85,9.18a2.82,2.82,0,0,1-2.08.92c-.79,0-1.19-.31-1.19-.92a7.8,7.8,0,0,1,1.19-3.06q8.33-12.86,15.18-23.11t12.49-19.74q3-5.2,7.15-5c2.77.1,5.75.15,8.92.15q-1.18,2.44-4.61,11t-7.44,18.82q-4,10.26-7,17.91a129.83,129.83,0,0,0-4.91,15.3,56.91,56.91,0,0,0-1.94,13.78q0,12.86,9.23,12.85,8,0,17.56-7.19a124.12,124.12,0,0,0,19.19-18.52q9.66-11.31,18.3-23.57c1-1.63,2-2.45,3-2.45.59,0,.89.52.89,1.53a5.5,5.5,0,0,1-.6,2.45v-.3q-9.81,14.38-19.78,26.32a115.52,115.52,0,0,1-19.5,19Q265.32,177.84,255.8,177.84ZM271.27,73.46q-6-2.13-5.95-8.26a8.53,8.53,0,0,1,8-8.27,7.49,7.49,0,0,1,5.8,2.45,8.35,8.35,0,0,1,2.23,5.82,7.77,7.77,0,0,1-3.27,6.27A8.39,8.39,0,0,1,271.27,73.46Z"/><path class="cls-3" d="M325.73,174.17q-11,0-15.18-7.35A33.51,33.51,0,0,1,306.39,150a78.07,78.07,0,0,1,1.78-16.52A98.29,98.29,0,0,1,312,119.68q2.38-6.42,6.55-17.75t10.11-24.8q6-13.45,12.95-27.08a235.59,235.59,0,0,1,14.58-24.8Q363.82,14.09,371.55,8q8.94-7,15.78-7Q396,.92,396,11.63a38.54,38.54,0,0,1-2.68,12.86q-5.65,14.69-22.77,37.65t-46,51.42a85.22,85.22,0,0,0-5.06,16.38,92.29,92.29,0,0,0-2.38,20.35,34.23,34.23,0,0,0,2.53,13.77q2.52,5.82,9.07,5.82a20.11,20.11,0,0,0,13.84-5.51,59.82,59.82,0,0,0,11-13.62A166.38,166.38,0,0,0,362,135a72.37,72.37,0,0,1-1-9c-.3-4.18-.45-7.81-.45-10.87q0-7.95,3-12.09t6.25-4.13a5.32,5.32,0,0,1,4.16,2.14c1.2,1.43,1.79,3.78,1.79,7a31.83,31.83,0,0,1-2.38,12.4q-2.38,5.67-7.14,16.68-.3,6.42,2.82,10.56a10.09,10.09,0,0,0,8.49,4.13q7.73,0,15-6.12a81.56,81.56,0,0,0,13.25-14.23q5.94-8.11,9.22-13.63c1-1.63,2-2.44,3-2.44a1.44,1.44,0,0,1,1.33,1.07,2.92,2.92,0,0,1-.44,2.6q-4.17,6.74-10.71,15.46a86.54,86.54,0,0,1-14.44,15.15,26.55,26.55,0,0,1-17.11,6.43,13.24,13.24,0,0,1-9.22-3.52q-3.87-3.53-4.47-10.26A104.75,104.75,0,0,1,354.15,157a49.21,49.21,0,0,1-12.35,12.25A27.8,27.8,0,0,1,325.73,174.17Zm2.08-68.57q14.28-14.38,26.63-29.54T376,47.14q9.21-13.77,13.39-23.88a34.87,34.87,0,0,0,2.68-11.93c0-3.88-1.1-5.82-3.28-5.82q-3.87,0-9.22,6.73A228.06,228.06,0,0,0,360.1,40.4q-9.68,16.23-18,33.21T327.81,105.6Z"/><path d="M68.65,72.33V177.81L54.43,189.76H14.21L0,177.81V72.33L14.21,60.54H54.43Zm-24.88,5.5H24.87L21,81.22V168.6L24.87,172h18.9l3.88-3.39V81.22Z"/><path d="M208.77,63.28V168.61l-14.19,11.93H154.41l-14.19-11.93V63.28l14.19-11.77h40.17Zm-24.84,5.49H165.06l-3.87,3.38v87.26l3.87,3.39h18.87l3.87-3.39V72.15Z"/></g></g></svg>