<svg xmlns="http://www.w3.org/2000/svg" viewBox="0 0 401.11 680"><defs><style>.cls-1{fill:#666;}</style></defs><g id="Layer_2" data-name="Layer 2"><g id="Layer_1-2" data-name="Layer 1"><path class="cls-1" d="M171.25,54.83h-47.9V0H245.57V486.11H171.25Z"/><path class="cls-1" d="M134.53,659.87q-26.67,0-44.26-18.71T72.68,581.64q0-30.61,12.79-81.07t42.66-129.82a1738.33,1738.33,0,0,1,72-167.23q41-83.34,90.11-152.5Q308.33,25,328.6,12.47T365.92,0A34,34,0,0,1,391,10.2q10.13,10.22,10.13,32.88,0,12.49-4.27,30.05t-14.92,40.25q-24.56,53.31-76.25,118.48T155.85,390q-46.93,125.85-46.92,195,0,30.62,10.13,43.65t25.06,13q14.92,0,32.53-10.2a295.86,295.86,0,0,0,33.59-22.68Q244.35,580.53,279,538a865,865,0,0,0,62.38-86.74c.7-1.51,2.49-2.27,5.34-2.27,2.13,0,4.08,1.14,5.86,3.4s2,4.54.53,6.81A913.83,913.83,0,0,1,286,551q-38.4,46.5-74.65,77.09Q171.84,659.86,134.53,659.87Zm34.12-301.59q72.49-71.43,121.56-132.09T367,108.85q20.24-41.94,20.26-64.63,0-19.26-12.8-19.28-8.55,0-23.46,13T316.87,79.37q-30.94,47.61-55.45,90.7T215,257.94Q193.18,302.75,168.65,358.28Z"/><path class="cls-1" d="M246,259.21v378L195.06,680H50.94L0,637.17v-378L50.94,217H195.06Zm-89.13,19.67H89.14L75.24,291V604.18l13.9,12.15h67.72l13.89-12.15V291Z"/></g></g></svg>