<svg xmlns="http://www.w3.org/2000/svg" width="61" height="62" fill="none" viewBox="0 0 61 62">
  <path fill="#111" d="M60.5 21.606l-5.151 3.03L43.227 3.727 48.38.697 60.5 21.607zm-36.667-3.03l9.091 15.757L51.41 23.727 42.32 7.97 23.832 18.576zm4.849 14.545l-6.06-10.606L9.59 30.091l6.06 10.606 13.03-7.576zM.5 38.88l3.03 5.151 7.88-4.545-3.031-5.152L.5 38.88zm30.606-2.152l-.727-1.151-13.515 7.848.909 1.212a9.093 9.093 0 002.424 2.425l-4.848 14.242h6.06l4.242-13.03h.303l4.546 13.03h6.06l-5.757-16.97a7.24 7.24 0 00.94-1.939 8 8 0 00-.637-5.667z"/>
  <path fill="#fff" d="M21.966 24.835L11.89 30.653l4.424 7.663 10.077-5.818-4.424-7.663zM41.636 10.24l-15.457 8.923 7.409 12.833 15.457-8.924-7.409-12.833zM55.87 22.321l2.257-1.303L47.748 3.042l-2.257 1.303L55.87 22.32zM7.766 36.625L2.86 39.458l1.303 2.257 4.907-2.833-1.303-2.257zM24.348 41l-4.697 2.697c.192.27.404.523.637.758.295.274.609.527.94.757a7.06 7.06 0 001.423.667c.442.141.9.223 1.364.242a5.667 5.667 0 002.212-.242 6.06 6.06 0 001.788-.97 6.06 6.06 0 001-.97c.234-.255.447-.528.636-.818.192-.422.354-.858.485-1.303a6.546 6.546 0 000-1.94c-.029-.37-.1-.736-.212-1.09a6.97 6.97 0 00-.273-.758L24.348 41z"/>
  <path fill="#fff" d="M24.6 46.116l-2.217-.747-4.586 13.617 2.216.747L24.6 46.115zM31.706 59.506l2.264-.778-5.201-15.131-2.264.778 5.2 15.131z"/>
  <path fill="#fff" d="M17.954 58.818l2.212.758h-2.484l.272-.758zM33.833 58.636l-2.182.88h2.485l-.303-.88z"/>
</svg>
