<svg xmlns="http://www.w3.org/2000/svg" viewBox="0 0 204 206.3"><defs><style>.cls-1{fill:#fff;}</style></defs><g id="Layer_2" data-name="Layer 2"><g id="Layer_1-2" data-name="Layer 1"><path class="cls-1" d="M154.28,0H204V206.3H0V0H48.47c-1,.9-2.16,1.74-3.13,2.72-12.86,13-25.68,26-38.57,38.92a7.83,7.83,0,0,0-2.5,6q.09,76.1,0,152.21c0,4.95,1.09,6.07,5.93,6.07h141a20,20,0,0,0,2.19,0,3.88,3.88,0,0,0,3.72-3.74,25.2,25.2,0,0,0,.08-2.61V70.25c0-1.34-.07-2.68,0-4a2.62,2.62,0,0,1,.78-1.69c6.05-4.89,12.16-9.72,18.27-14.59.58.35,1.08.68,1.59,1,5.37,2.92,10.75,2.81,15.84-.46a14.53,14.53,0,0,0,7-13.59c-.32-6.46-3.58-11.2-9.52-13.63a14.2,14.2,0,0,0-16.06,3c-4.6,4.35-6,9.8-4.13,16a1.79,1.79,0,0,1-.71,2.34c-3.89,3-7.72,6.11-11.58,9.17-.38.3-.81.54-1.5,1V52.21c0-15.55,0-31.1,0-46.65C157.26,3.05,156.66,1.1,154.28,0Z"/><path d="M154.89,2c2.35,1.08,3,3,2.94,5.45-.06,15.26,0,30.51,0,45.76v2.44c.69-.44,1.12-.67,1.49-1,3.83-3,7.63-6,11.5-9a1.75,1.75,0,0,0,.7-2.29c-1.85-6-.47-11.39,4.1-15.66a14.22,14.22,0,0,1,15.93-2.94A14.37,14.37,0,0,1,201,38.16a14.25,14.25,0,0,1-6.93,13.34c-5.06,3.21-10.4,3.31-15.72.44-.51-.27-1-.59-1.58-.93-6.07,4.77-12.13,9.51-18.14,14.3a2.61,2.61,0,0,0-.77,1.66c-.11,1.3,0,2.63,0,3.94V197.72a24.33,24.33,0,0,1-.08,2.56A3.83,3.83,0,0,1,154,204a19.65,19.65,0,0,1-2.17,0H11.92C7.13,204,6,202.89,6,198Q6,123.39,6,48.74a7.68,7.68,0,0,1,2.48-5.9C21.28,30.16,34,17.39,46.76,4.67c1-1,2.07-1.78,3.11-2.67Z"/><path d="M150.87,72c-.35,0-.51,0-.6.1-4,3.14-8,6.33-12,9.41a2.3,2.3,0,0,0-1,3,15.09,15.09,0,0,1-5,16.27,15.41,15.41,0,0,1-25.12-13.07,1.74,1.74,0,0,0-1.28-2.08c-3.61-1.6-7.21-3.23-10.76-5a2,2,0,0,0-2.74.5,14.72,14.72,0,0,1-8.66,4.28,16,16,0,0,1-10.22-2.12c-.46.41-.87.75-1.26,1.11L44.1,110.55a14,14,0,0,1-1.36,1.19A4,4,0,0,1,37.36,106a16,16,0,0,1,1.42-1.43Q52.46,91.79,66.16,79.06A23.07,23.07,0,0,1,68,77.65c-.17-.63-.19-.77-.24-.89-2.74-6.42-1.59-13,3-17.64a15.61,15.61,0,0,1,16.94-3.25c6.19,2.68,9.59,8.45,9.35,15.66a2.32,2.32,0,0,0,1.18,1.67c3.55,1.72,7.19,3.25,10.73,5a2.14,2.14,0,0,0,2.91-.52,14.5,14.5,0,0,1,14.44-3.8,49.13,49.13,0,0,1,5.66,2.3c5.72-4.51,11.53-9.14,17.42-13.69A3.54,3.54,0,0,0,151,59.31c0-16.35,0-32.71,0-49.06,0-.7-.07-1.4-.1-2.07H54.25v36.3c0,4.06-1.36,5.4-5.47,5.4H12.52V197.72H150.87Z"/><path d="M46,41.76V14.83c-8.89,8.9-18,18-26.93,26.93Z"/><path d="M187.59,30.12a7.41,7.41,0,0,0-7.43,7.39,7.43,7.43,0,1,0,14.86,0A7.42,7.42,0,0,0,187.59,30.12Z"/><path d="M122.48,96.18a7.33,7.33,0,0,0,7.43-7.35,7.45,7.45,0,0,0-7.35-7.49,7.59,7.59,0,0,0-7.49,7.41A7.45,7.45,0,0,0,122.48,96.18Z"/><path d="M74.3,70a7.44,7.44,0,0,0,7.32,7.51,7.55,7.55,0,0,0,7.51-7.38,7.44,7.44,0,0,0-7.38-7.45A7.33,7.33,0,0,0,74.3,70Z"/><path class="cls-1" d="M151.87,71.59V198.72H12V49.26H48.66c4.15,0,5.53-1.35,5.53-5.46V7.1h97.65c0,.68.1,1.38.1,2.09,0,16.54,0,33.07,0,49.61A3.58,3.58,0,0,1,150.41,62c-5.95,4.59-11.83,9.28-17.6,13.83a50.26,50.26,0,0,0-5.73-2.32,14.64,14.64,0,0,0-14.59,3.85,2.18,2.18,0,0,1-2.95.52c-3.58-1.77-7.26-3.32-10.85-5.07a2.32,2.32,0,0,1-1.19-1.69c.24-7.29-3.2-13.12-9.45-15.82A15.78,15.78,0,0,0,70.92,58.6c-4.69,4.65-5.85,11.34-3.08,17.84,0,.12.07.25.24.89-.47.37-1.21.85-1.85,1.43L38.55,104.52A15,15,0,0,0,37.12,106a4,4,0,0,0,5.44,5.84,15.68,15.68,0,0,0,1.37-1.2L72.37,84.15c.39-.37.8-.71,1.27-1.12A16.27,16.27,0,0,0,84,85.17a14.8,14.8,0,0,0,8.74-4.33,2,2,0,0,1,2.78-.5c3.58,1.75,7.22,3.39,10.88,5a1.77,1.77,0,0,1,1.29,2.11,15.58,15.58,0,0,0,25.4,13.2,15.27,15.27,0,0,0,5-16.45,2.3,2.3,0,0,1,1-3c4.09-3.12,8.11-6.34,12.16-9.52C151.35,71.62,151.51,71.65,151.87,71.59Z"/><path class="cls-1" d="M98.09,142.18q0-19,0-38c0-4-1.36-5.42-5.43-5.42q-11.07,0-22.13,0c-3.81,0-5.23,1.42-5.23,5.22q0,38.22,0,76.42c0,3.72,1.42,5.08,5.13,5.09q11.07,0,22.13,0c4.26,0,5.53-1.26,5.53-5.49Q98.1,161.09,98.09,142.18Z"/><path class="cls-1" d="M106.13,150.43q0,15,0,30c0,3.7,1.4,5.08,5.12,5.09q11.27,0,22.53,0c3.72,0,5.11-1.36,5.11-5.09q0-30,0-59.92c0-3.73-1.4-5.09-5.11-5.1q-11.16,0-22.32,0c-4,0-5.32,1.34-5.33,5.3Z"/><path class="cls-1" d="M24.47,161.9q0,9.24,0,18.49c0,3.7,1.39,5.08,5.11,5.09q11.27,0,22.51,0c3.75,0,5.13-1.34,5.14-5.06q0-18.6,0-37.18c0-3.66-1.47-5.14-5.1-5.15q-11.25,0-22.51,0c-3.66,0-5.14,1.51-5.15,5.12Q24.46,152.56,24.47,161.9Z"/><path class="cls-1" d="M28.53,123.54a3.95,3.95,0,1,0-.08-7.89,4.06,4.06,0,0,0-4,4A4,4,0,0,0,28.53,123.54Z"/><path class="cls-1" d="M48,43H17L48,12Z"/><path class="cls-1" d="M185.59,31.12A7.42,7.42,0,0,1,193,38.51a7.43,7.43,0,1,1-14.86,0A7.41,7.41,0,0,1,185.59,31.12Z"/><path class="cls-1" d="M122.48,96.18a7.45,7.45,0,0,1-7.41-7.43,7.59,7.59,0,0,1,7.49-7.41,7.45,7.45,0,0,1,7.35,7.49A7.33,7.33,0,0,1,122.48,96.18Z"/><path class="cls-1" d="M74.3,70a7.33,7.33,0,0,1,7.45-7.32,7.44,7.44,0,0,1,7.38,7.45,7.55,7.55,0,0,1-7.51,7.38A7.44,7.44,0,0,1,74.3,70Z"/><path d="M96,142.07v36.6c0,4.1-1.13,5.32-4.89,5.32q-9.78,0-19.56,0c-3.28,0-4.54-1.33-4.54-4.93q0-37,0-74c0-3.69,1.26-5,4.63-5.06,6.52,0,13,0,19.55,0,3.61,0,4.81,1.34,4.81,5.26Z"/><path d="M90,106.91H73.46v70.4H90Z"/><path d="M108,150.5V122.07c0-3.78,1.19-5.06,4.71-5.06q9.89,0,19.76,0c3.28,0,4.52,1.31,4.52,4.87q0,28.62,0,57.25c0,3.56-1.23,4.85-4.53,4.86H112.53c-3.29,0-4.52-1.33-4.52-4.87Q108,164.81,108,150.5Z"/><path d="M130.7,177.35V123.53H114.34v53.82Z"/><path d="M26,162.11c0-5.78,0-11.56,0-17.34,0-3.35,1.31-4.74,4.55-4.75q10,0,19.91,0c3.22,0,4.51,1.39,4.51,4.78q0,17.25,0,34.49c0,3.45-1.23,4.69-4.54,4.7H30.53c-3.29,0-4.52-1.29-4.52-4.73C26,173.55,26,167.83,26,162.11Z"/><path d="M49.19,177.33V151.05c0-4.93,0-4.93-4.91-4.93H32.61v31.21Z"/><path d="M28.53,123.54a4,4,0,0,1-4-3.89,4,4,0,0,1,8-.08A4,4,0,0,1,28.53,123.54Z"/><path class="cls-1" d="M90,106.91v70.4H73.46v-70.4Z"/><path class="cls-1" d="M130.7,177.35H114.34V123.53H130.7Z"/><path class="cls-1" d="M49.19,177.33H32.61V146.12H44.28c4.91,0,4.91,0,4.91,4.93v26.28Z"/><polygon class="cls-1" points="48.97 44 14.97 44.03 49 10 48.97 44"/></g></g></svg>