<svg xmlns="http://www.w3.org/2000/svg" viewBox="0 0 183.83 183.83"><defs><style>.cls-1{fill:#fff;}</style></defs><g id="Layer_2" data-name="Layer 2"><g id="Layer_1-2" data-name="Layer 1"><path class="cls-1" d="M183.83,183.83H0V0H183.83ZM171.51,53.25c2.46-3,4.8-5.87,7.16-8.72a10.14,10.14,0,0,0,2.52-6.31c.15-5.08-4.43-10.56-9.74-11.68a9.23,9.23,0,0,0-1.65-.23,9.87,9.87,0,0,0-8.38,3.79q-7.51,9.13-15,18.28c-.2.25-.45.47-.84.88V47.71c0-8.88,0-17.76,0-26.65a13.67,13.67,0,0,0-.34-3.19C144,13,139.94,10,134.57,10H13.73c-.4,0-.79,0-1.19,0A10,10,0,0,0,2.71,20.31a9.93,9.93,0,0,0,9.71,10.32c.91,0,1.81,0,2.84,0V172.08c0,2.3.58,2.93,2.73,2.93q54.19,0,108.4,0c2,0,2.71-.66,2.71-2.72v-24h13.31c2.6,0,3.14-.55,3.14-3.15q0-29.52,0-59a3.14,3.14,0,0,1,.75-2.15q11-13.36,22-26.76a4.52,4.52,0,0,0,.4-.76L175,61.54c-.21.29-.38.56-.58.8L160.9,78.77c-1,1.2-2,2.38-2.93,3.62A2.07,2.07,0,0,0,161.15,85a8.93,8.93,0,0,0,.7-.82l17.22-21c1.45-1.76,1.36-2.67-.39-4.1Z"/><path d="M171.51,53.25l7.17,5.9c1.75,1.43,1.84,2.34.39,4.1l-17.22,21a8.93,8.93,0,0,1-.7.82A2.07,2.07,0,0,1,158,82.39c.94-1.24,1.95-2.42,2.93-3.62l13.51-16.43c.2-.24.37-.51.58-.8l-6.28-5.17a4.52,4.52,0,0,1-.4.76q-11,13.4-22,26.76a3.14,3.14,0,0,0-.75,2.15q0,29.53,0,59.05c0,2.6-.54,3.15-3.14,3.15H129.1v24c0,2.06-.66,2.72-2.71,2.72Q72.2,175,18,175c-2.15,0-2.73-.63-2.73-2.93V30.64c-1,0-1.93,0-2.84,0A9.93,9.93,0,0,1,2.71,20.31a10,10,0,0,1,9.83-10.24c.4,0,.79,0,1.19,0H134.57c5.37,0,9.42,3,10.63,7.83a13.67,13.67,0,0,1,.34,3.19c0,8.89,0,17.77,0,26.65v1.55c.39-.41.64-.63.84-.88q7.53-9.14,15-18.28a9.87,9.87,0,0,1,8.38-3.79,9.23,9.23,0,0,1,1.65.23c5.31,1.12,9.89,6.6,9.74,11.68a10.14,10.14,0,0,1-2.52,6.31C176.31,47.38,174,50.25,171.51,53.25Zm-152-22.57V170.81H124.82V110.09c-.35.4-.53.61-.7.82q-10.22,12.41-20.43,24.81a5.37,5.37,0,0,1-1.64,1.32c-3.81,2-7.65,3.92-11.48,5.87l-1.95,1c.18,1.16.68,2.23.36,2.94s-1.47.78-2.28,1.12a1.63,1.63,0,0,1-.59,0c-8.72,0-17.44,0-26.17,0A2.08,2.08,0,0,1,57.67,146a2.11,2.11,0,0,1,2.32-2c3.23,0,6.45,0,9.68,0h9.86c.84-3,1.66-5.84,2.52-8.9H60.8a9.46,9.46,0,0,1-1.19,0,2.09,2.09,0,0,1,.08-4.17,9.51,9.51,0,0,1,1.07,0c7.13,0,14.26,0,21.4,0,.8,0,1.19-.19,1.39-1,.54-2.16,1.16-4.31,1.82-6.43a5.38,5.38,0,0,1,1-1.87c4.22-5.19,8.48-10.35,12.73-15.53.23-.28.44-.59.83-1.11H60.34c-1.68,0-2.66-.79-2.67-2.08s1-2.1,2.63-2.11h.84q20.63,0,41.24,0a2.3,2.3,0,0,0,1.59-.68q10.16-12.24,20.19-24.56a3.62,3.62,0,0,0,.75-2.12c0-13.71,0-27.41.06-41.12,0-1.26-.37-1.49-1.54-1.49q-51.27,0-102.54,0ZM126.71,14.24H14.28a19.06,19.06,0,0,0-2.27.09,5.34,5.34,0,0,0-4.65,3.58c-1.74,4.52,1.12,8.6,6.06,8.6H125.61c.33,0,.66-.05,1.06-.08A11.52,11.52,0,0,1,126.71,14.24Zm28,30.62-64.14,78,10.91,9,64.13-78ZM141.26,90.14c-.35.38-.56.6-.75.83-3.59,4.37-7.19,8.73-10.75,13.13a3.07,3.07,0,0,0-.63,1.8q-.06,18.46,0,36.93c0,.39,0,.77.06,1.19h12.1ZM129.15,69.35c3.93-4.78,7.69-9.32,11.38-13.9a3.67,3.67,0,0,0,.77-2.12c0-10.71,0-21.43,0-32.15,0-.51,0-1,0-1.55a6.07,6.07,0,0,0-5.18-5.32c-3.2-.38-5.7,1.06-6.64,3.84-1.44,4.26,1.11,8.1,5.57,8.35a2.14,2.14,0,0,1,2.13,1.23,2,2,0,0,1-1.91,2.92c-2,.06-4,0-6.11,0Zm28.22-27.72,10.93,9c2.67-3.31,5.38-6.44,7.83-9.76a5.53,5.53,0,0,0-1-7.27c-.7-.64-1.45-1.24-2.21-1.82a5.91,5.91,0,0,0-8.16.87c-.85,1-1.67,2-2.5,3ZM98,134.44l-9.27-7.63c-1.37,4.84-2.68,9.48-4.07,14.41Z"/><path class="cls-1" d="M19.48,30.68h1.41q51.27,0,102.54,0c1.17,0,1.55.23,1.54,1.49,0,13.71,0,27.41-.06,41.12a3.62,3.62,0,0,1-.75,2.12q-10,12.33-20.19,24.56a2.3,2.3,0,0,1-1.59.68q-20.62.06-41.24,0H60.3c-1.65,0-2.64.81-2.63,2.11s1,2.07,2.67,2.08H99.9c-.39.52-.6.83-.83,1.11-4.25,5.18-8.51,10.34-12.73,15.53a5.38,5.38,0,0,0-1,1.87c-.66,2.12-1.28,4.27-1.82,6.43-.2.83-.59,1-1.39,1-7.14,0-14.27,0-21.4,0a9.51,9.51,0,0,0-1.07,0,2.09,2.09,0,0,0-.08,4.17,9.46,9.46,0,0,0,1.19,0H82.05c-.86,3.06-1.68,5.95-2.52,8.9H69.67c-3.23,0-6.45,0-9.68,0a2.11,2.11,0,0,0-2.32,2A2.08,2.08,0,0,0,59.94,148c8.73,0,17.45,0,26.17,0a1.63,1.63,0,0,0,.59,0c.81-.34,2-.53,2.28-1.12s-.18-1.78-.36-2.94l1.95-1C94.4,141,98.24,139,102.05,137a5.37,5.37,0,0,0,1.64-1.32q10.23-12.39,20.43-24.81c.17-.21.35-.42.7-.82v60.72H19.48Zm19,32.7A13.27,13.27,0,1,0,25.3,50.17,13.29,13.29,0,0,0,38.52,63.38ZM86.78,44.52h26.05c2.09,0,3.12-.71,3.08-2.12s-1-2-3-2H60.76c-2.09,0-3.12.71-3.09,2.12s1,2,3.06,2Zm0,30.14h26.05a11.76,11.76,0,0,0,1.19,0,2.06,2.06,0,0,0,1.89-2,2.11,2.11,0,0,0-1.86-2.13,11.76,11.76,0,0,0-1.19,0H60a2.09,2.09,0,1,0,0,4.14c.32,0,.64,0,1,0ZM73.29,113.78H60.75c-2.08,0-3.12.72-3.08,2.13s1,2,3.06,2H85.8a8.16,8.16,0,0,0,1.31-.06,2,2,0,0,0,1.76-2,2.06,2.06,0,0,0-1.73-2.11,7.85,7.85,0,0,0-1.19,0Zm0-56.14h8.95c1.55,0,3.11,0,4.66,0a2.07,2.07,0,0,0,2-2.09,2.1,2.1,0,0,0-2-2c-.4,0-.8,0-1.19,0H65.06c-1.75,0-3.5,0-5.25,0a2.06,2.06,0,0,0-2.14,2.09,2.11,2.11,0,0,0,2.33,2C64.42,57.65,68.84,57.64,73.26,57.64Zm0,30.15H84.74c.75,0,1.51,0,2.26,0a2,2,0,0,0,1.88-2.09,2.1,2.1,0,0,0-1.87-2c-.31,0-.63,0-1,0H60.5a6.39,6.39,0,0,0-1.07,0,2.09,2.09,0,0,0-1.76,2.09,2.06,2.06,0,0,0,1.76,2,7.84,7.84,0,0,0,1.19.05ZM34.89,112.25c-.87-.94-1.66-1.84-2.5-2.69-1.2-1.21-2.38-1.34-3.33-.41s-.82,2.16.35,3.33L33,116c1.57,1.57,2.49,1.58,4,0l10.55-10.56a7.09,7.09,0,0,0,.65-.7A2.08,2.08,0,0,0,48,102a2,2,0,0,0-2.72-.08,11.63,11.63,0,0,0-.95.91Zm-2,30.15c-1-1-1.82-2-2.72-2.87-1.07-1.06-2.26-1.12-3.16-.21a2.13,2.13,0,0,0,.22,3.17c1.23,1.25,2.47,2.48,3.71,3.71,1.55,1.55,2.47,1.55,4,0l10.56-10.56a5,5,0,0,0,.78-.89,2,2,0,0,0-.29-2.53,2,2,0,0,0-2.61-.27,7.34,7.34,0,0,0-1,.88Zm2.7-60.2c-1-1.12-1.87-2.12-2.79-3a2.09,2.09,0,1,0-3,2.91q2.07,2.15,4.22,4.22a2,2,0,0,0,3.15,0q5.74-5.67,11.4-11.4a2.06,2.06,0,0,0,0-3.07,2,2,0,0,0-3,.14q-3.54,3.48-7,7C37.69,80,36.75,81,35.6,82.2Z"/><path class="cls-1" d="M126.71,14.24a11.52,11.52,0,0,0,0,12.19c-.4,0-.73.08-1.06.08H13.42c-4.94,0-7.8-4.08-6.06-8.6A5.34,5.34,0,0,1,12,14.33a19.06,19.06,0,0,1,2.27-.09H126.71Z"/><path class="cls-1" d="M154.71,44.86l10.9,9-64.13,78-10.91-9Z"/><path class="cls-1" d="M141.26,90.14V144h-12.1c0-.42-.06-.8-.06-1.19q0-18.47,0-36.93a3.07,3.07,0,0,1,.63-1.8c3.56-4.4,7.16-8.76,10.75-13.13C140.7,90.74,140.91,90.52,141.26,90.14Z"/><path class="cls-1" d="M129.15,69.35V30.66c2.07,0,4.09.05,6.11,0a2,2,0,0,0,1.91-2.92A2.14,2.14,0,0,0,135,26.5c-4.46-.25-7-4.09-5.57-8.35.94-2.78,3.44-4.22,6.64-3.84a6.07,6.07,0,0,1,5.18,5.32c0,.52,0,1,0,1.55,0,10.72,0,21.44,0,32.15a3.67,3.67,0,0,1-.77,2.12C136.84,60,133.08,64.57,129.15,69.35Z"/><path class="cls-1" d="M157.37,41.63l4.89-6c.83-1,1.65-2.05,2.5-3a5.91,5.91,0,0,1,8.16-.87c.76.58,1.51,1.18,2.21,1.82a5.53,5.53,0,0,1,1,7.27c-2.45,3.32-5.16,6.45-7.83,9.76Z"/><path class="cls-1" d="M98,134.44l-13.34,6.78c1.39-4.93,2.7-9.57,4.07-14.41Z"/><path d="M38.52,63.38a13.27,13.27,0,0,1,0-26.53,13.27,13.27,0,1,1,0,26.53ZM47.6,50.1a9.08,9.08,0,0,0-18.16.06A9.08,9.08,0,1,0,47.6,50.1Z"/><path d="M86.78,44.52H60.73c-2,0-3-.67-3.06-2s1-2.12,3.09-2.12h52.1c2,0,3,.66,3,2s-1,2.12-3.08,2.12Z"/><path d="M86.78,74.66H61c-.32,0-.64,0-1,0a2.09,2.09,0,1,1,0-4.14h52.82a11.76,11.76,0,0,1,1.19,0,2.11,2.11,0,0,1,1.86,2.13,2.06,2.06,0,0,1-1.89,2,11.76,11.76,0,0,1-1.19,0Z"/><path d="M73.29,113.78H86a7.85,7.85,0,0,1,1.19,0,2.06,2.06,0,0,1,1.73,2.11,2,2,0,0,1-1.76,2,8.16,8.16,0,0,1-1.31.06H60.73c-2,0-3-.68-3.06-2s1-2.13,3.08-2.13Z"/><path d="M73.26,57.64c-4.42,0-8.84,0-13.26,0a2.11,2.11,0,0,1-2.33-2,2.06,2.06,0,0,1,2.14-2.09c1.75,0,3.5,0,5.25,0H85.72c.39,0,.79,0,1.19,0a2.1,2.1,0,0,1,2,2,2.07,2.07,0,0,1-2,2.09c-1.55.05-3.11,0-4.66,0Z"/><path d="M73.27,87.79H60.62a7.84,7.84,0,0,1-1.19-.05,2.06,2.06,0,0,1-1.76-2,2.09,2.09,0,0,1,1.76-2.09,6.39,6.39,0,0,1,1.07,0H86.06c.32,0,.64,0,1,0a2.1,2.1,0,0,1,1.87,2A2,2,0,0,1,87,87.75c-.75.07-1.51,0-2.26,0Z"/><path d="M34.89,112.25l9.42-9.43a11.63,11.63,0,0,1,.95-.91A2,2,0,0,1,48,102a2.08,2.08,0,0,1,.21,2.82,7.09,7.09,0,0,1-.65.7L37,116.07c-1.55,1.54-2.47,1.53-4,0l-3.54-3.55c-1.17-1.17-1.29-2.4-.35-3.33s2.13-.8,3.33.41C33.23,110.41,34,111.31,34.89,112.25Z"/><path d="M32.9,142.4l9.55-9.58a7.34,7.34,0,0,1,1-.88,2,2,0,0,1,2.61.27,2,2,0,0,1,.29,2.53,5,5,0,0,1-.78.89L35,146.19c-1.56,1.56-2.48,1.56-4,0-1.24-1.23-2.48-2.46-3.71-3.71a2.13,2.13,0,0,1-.22-3.17c.9-.91,2.09-.85,3.16.21C31.08,140.42,31.93,141.37,32.9,142.4Z"/><path d="M35.6,82.2C36.75,81,37.69,80,38.67,79q3.48-3.51,7-7a2,2,0,0,1,3-.14,2.06,2.06,0,0,1,0,3.07q-5.67,5.73-11.4,11.4a2,2,0,0,1-3.15,0q-2.14-2.07-4.22-4.22a2.09,2.09,0,1,1,3-2.91C33.73,80.08,34.58,81.08,35.6,82.2Z"/><path class="cls-1" d="M47.6,50.1a9.08,9.08,0,1,1-9-9A9,9,0,0,1,47.6,50.1Zm-11.38.78a10.62,10.62,0,0,0-1.06-1.38,2.08,2.08,0,1,0-2.9,3c.74.79,1.51,1.53,2.27,2.28,1.36,1.34,2.34,1.35,3.68,0q3.18-3.15,6.32-6.32c1.15-1.15,1.26-2.44.31-3.34s-2.08-.78-3.24.37Z"/><path d="M36.22,50.88l5.38-5.4c1.16-1.15,2.3-1.27,3.24-.37s.84,2.19-.31,3.34q-3.15,3.16-6.32,6.32c-1.34,1.33-2.32,1.32-3.68,0-.76-.75-1.53-1.49-2.27-2.28a2.08,2.08,0,1,1,2.9-3A10.62,10.62,0,0,1,36.22,50.88Z"/></g></g></svg>